<?xml version="1.0" encoding="utf-8"?>
<svg xmlns="http://www.w3.org/2000/svg" viewBox="178.864 83.101 706 133.3" width="706px" height="133.3px"><g id="object-16"><path d="M 215.364 142.501 L 216.864 142.501 C 218.564 142.501 219.564 142.701 219.864 143.001 C 224.064 151.201 226.664 156.601 227.764 159.001 C 228.564 160.101 228.964 160.801 228.964 161.101 C 229.764 162.401 231.164 165.101 233.364 169.201 C 235.564 173.301 237.264 176.301 238.464 178.201 L 241.164 183.301 L 242.864 186.701 C 243.964 189.201 244.664 190.501 244.764 190.701 L 244.764 191.001 C 244.764 191.001 244.964 191.201 244.964 191.201 C 246.564 194.201 247.864 196.701 248.964 198.801 C 250.064 200.901 250.764 202.301 251.064 203.001 C 251.364 203.701 251.764 204.401 252.164 205.201 C 252.564 206.001 253.164 207.001 253.964 208.301 C 254.164 208.601 254.364 209.201 254.764 210.201 C 255.364 211.501 255.664 212.701 255.664 214.101 C 255.664 215.501 254.264 215.301 251.564 215.401 C 250.964 215.501 249.964 215.501 248.664 215.501 L 243.064 215.501 C 243.064 215.401 242.864 215.401 242.864 215.401 C 242.664 215.301 242.364 215.201 241.864 215.201 C 241.364 215.201 241.064 215.201 240.364 215.301 C 239.564 215.401 238.964 215.401 238.364 215.401 L 229.864 215.401 C 226.964 215.401 225.264 215.101 224.664 214.601 C 224.664 214.501 224.664 214.601 224.664 214.601 C 224.664 214.401 224.364 213.901 224.164 213.201 C 223.964 212.501 223.864 212.101 223.664 211.801 L 222.764 209.001 C 221.564 206.301 220.464 203.501 219.364 200.701 L 217.964 197.301 C 217.964 197.301 217.764 197.001 217.564 196.501 C 217.364 196.001 217.164 195.601 216.964 195.101 C 216.764 194.601 216.564 194.201 216.564 193.901 L 216.164 193.101 C 215.464 195.401 215.064 196.601 215.064 196.701 C 215.064 196.801 214.864 197.201 214.864 197.201 C 214.864 197.201 214.664 197.601 214.564 198.001 C 214.464 198.401 214.364 198.801 214.264 198.901 C 213.364 201.301 212.564 203.301 211.964 205.001 C 211.664 206.101 211.364 206.901 211.164 207.401 L 210.764 208.701 L 209.964 211.101 C 209.764 211.901 209.464 212.601 209.164 213.401 C 208.964 213.801 208.464 214.801 207.664 216.201 L 204.364 216.201 C 203.864 216.301 203.364 216.401 202.864 216.401 C 202.364 216.401 202.364 216.301 202.064 216.201 C 201.664 216.301 201.164 216.401 200.464 216.401 C 199.764 216.401 199.164 216.301 198.664 216.201 C 198.264 216.101 197.064 216.101 195.164 216.101 C 192.364 216.101 190.764 216.101 190.164 216.201 L 183.764 216.201 C 182.964 216.201 182.564 216.201 182.364 216.101 L 182.164 216.101 C 180.364 216.101 179.264 215.901 178.864 215.401 L 178.864 215.101 C 178.864 213.101 179.464 211.001 180.464 209.001 L 180.964 208.101 L 182.464 204.601 L 182.464 204.401 C 182.764 203.801 183.164 202.701 183.964 201.301 C 184.664 199.901 185.264 198.701 185.664 197.701 C 187.064 194.301 189.464 188.801 192.764 181.001 C 196.164 173.301 198.564 167.401 200.164 163.401 C 200.564 162.501 200.764 162.001 200.964 161.801 C 201.664 159.701 202.364 157.701 203.164 155.701 C 203.964 153.701 204.564 152.001 205.164 150.601 C 205.764 149.201 206.264 147.901 206.764 146.901 C 207.264 145.801 207.664 145.001 207.964 144.401 L 208.364 143.601 C 208.964 143.001 210.164 142.701 212.164 142.701 L 215.464 142.701 L 215.364 142.501 Z" fill="#d55293" id="object-0"/><path d="M 252.864 143.101 C 253.364 143.101 253.664 143.301 253.864 143.301 L 254.564 143.101 C 255.064 143.101 257.064 143.301 260.564 143.401 C 264.064 143.501 267.164 144.001 269.864 144.801 C 271.964 145.401 275.464 147.101 280.564 149.801 C 280.764 149.801 281.164 150.201 281.564 150.601 C 281.964 151.001 282.264 151.201 282.364 151.301 C 282.664 151.301 283.564 152.101 285.264 153.401 C 286.864 154.701 287.764 155.401 287.764 155.501 C 288.064 155.701 288.764 156.401 290.064 157.701 L 292.164 159.801 C 293.164 160.701 294.164 161.901 295.164 163.501 C 295.164 163.501 295.364 163.801 295.564 164.101 C 295.764 164.401 295.964 164.701 296.064 164.801 C 296.464 165.201 296.864 165.801 297.264 166.601 C 297.464 167.401 297.864 168.101 298.264 168.801 C 298.664 169.601 298.964 170.601 299.264 172.001 C 299.264 172.401 299.464 173.001 299.664 173.701 C 299.864 174.401 299.964 174.801 299.964 175.001 C 300.264 176.001 300.364 177.401 300.364 179.201 C 300.364 182.301 299.864 185.501 298.964 188.701 C 298.664 189.601 297.964 191.501 296.664 194.401 C 295.364 197.301 294.664 198.801 294.464 198.901 C 294.164 199.201 293.864 199.701 293.564 200.301 C 291.164 204.301 288.864 206.901 286.564 208.301 C 286.364 208.301 285.964 208.701 285.264 209.101 C 284.564 209.501 284.164 209.801 283.964 210.001 C 283.264 210.601 282.664 210.901 282.264 211.101 C 281.764 211.401 281.464 211.501 281.464 211.701 C 281.264 212.001 280.464 212.301 279.164 212.801 C 277.764 213.301 276.664 213.601 275.764 213.801 C 275.764 213.801 275.464 213.801 275.164 213.901 C 274.864 214.001 274.564 214.101 274.364 214.101 C 273.564 214.301 272.564 214.401 271.564 214.501 C 271.164 214.601 270.664 214.601 269.964 214.701 C 269.264 214.801 268.764 214.901 268.564 214.901 C 266.964 215.301 264.364 215.501 260.764 215.501 C 257.164 215.501 256.064 215.201 255.464 214.701 C 254.764 214.201 254.464 212.801 254.364 210.401 C 254.164 209.101 254.064 208.301 254.064 207.801 L 254.064 207.001 C 254.064 206.601 254.064 205.901 254.064 205.001 L 254.064 202.501 L 252.564 157.401 C 252.564 154.801 252.564 153.101 252.564 152.101 L 252.564 151.901 C 252.564 151.901 252.564 151.601 252.564 151.401 L 252.564 150.801 L 252.264 147.701 C 252.264 146.401 252.064 145.701 252.064 145.501 C 252.064 144.701 252.064 144.101 252.364 143.801 C 252.764 143.401 252.964 143.201 253.164 143.101 L 252.864 143.101 Z" fill="#d55293" id="object-1"/><path d="M 330.364 140.501 L 331.264 140.501 L 333.364 140.501 L 345.764 140.501 L 347.664 140.501 C 347.764 140.501 347.764 141.001 347.764 141.801 C 347.764 142.601 347.764 143.301 347.664 143.801 L 347.664 146.601 C 347.864 148.001 347.964 149.201 347.964 150.101 C 347.964 151.001 347.964 151.401 347.864 152.501 C 347.764 153.601 347.764 154.301 347.764 154.801 L 347.764 157.001 C 347.864 157.801 347.864 158.401 347.764 158.601 C 347.664 158.801 347.564 159.001 347.564 159.201 L 347.564 159.801 C 347.564 160.001 347.464 160.001 347.264 160.001 L 344.864 160.001 C 344.164 160.001 343.364 160.001 342.464 160.001 L 336.264 160.001 C 332.864 160.001 330.464 159.801 328.864 159.701 L 322.264 159.701 C 321.964 159.701 321.664 159.701 321.464 160.001 L 321.064 160.301 L 320.864 163.601 C 320.864 165.401 320.964 166.201 321.064 166.201 L 321.264 166.201 C 321.331 166.201 321.398 166.201 321.464 166.201 C 321.764 166.401 321.964 166.501 322.164 166.501 C 322.464 166.501 323.364 166.301 324.864 166.301 C 326.364 166.301 327.564 166.301 329.564 166.501 L 341.864 166.501 C 342.364 166.501 342.664 166.701 342.764 166.801 C 342.864 167.101 342.964 167.301 342.964 167.601 C 342.964 168.101 342.864 168.901 342.764 170.101 L 342.764 173.701 C 342.764 174.101 342.864 175.401 342.964 177.801 C 343.064 180.201 343.164 181.901 343.164 183.001 C 343.164 185.301 342.964 186.601 342.664 186.901 L 326.264 186.901 C 326.064 186.901 325.664 186.901 324.964 186.901 L 322.164 186.901 C 321.764 186.901 321.464 188.501 321.464 191.801 C 321.464 195.101 321.664 197.901 322.064 198.101 L 327.964 198.101 L 334.364 198.101 L 342.564 198.101 L 348.264 198.101 C 348.364 198.301 348.364 198.501 348.364 198.901 L 348.364 208.401 C 348.464 208.601 348.464 208.901 348.464 209.301 L 348.464 214.701 C 348.464 215.101 348.464 215.301 348.364 215.401 C 347.964 215.601 346.664 215.701 344.264 215.701 C 341.864 215.701 338.464 215.601 334.964 215.401 C 331.564 215.301 329.364 215.201 328.264 215.201 C 326.664 215.201 325.564 215.301 324.964 215.401 C 324.464 215.501 323.664 215.601 322.664 215.601 C 321.664 215.601 321.364 215.601 320.364 215.501 C 319.364 215.401 318.764 215.401 318.464 215.401 L 315.164 215.401 C 314.964 215.501 314.564 215.501 313.964 215.501 C 313.064 215.501 312.464 215.501 311.964 215.401 L 306.464 215.401 C 306.164 215.501 305.664 215.501 305.164 215.501 L 303.764 215.501 C 303.464 215.601 303.264 215.701 303.064 215.701 C 302.764 215.701 302.464 215.601 302.264 215.501 C 302.264 215.401 301.964 215.501 301.764 215.601 C 301.564 215.801 301.464 215.801 301.364 215.801 C 301.264 215.801 301.364 215.701 301.364 215.401 C 301.364 215.301 301.364 214.301 301.364 212.401 C 301.364 208.201 301.364 204.401 301.664 200.901 C 301.964 196.401 302.064 191.901 302.064 187.501 L 302.064 180.301 C 302.064 178.101 302.064 175.101 302.264 171.301 C 302.264 170.601 302.264 169.301 302.264 167.501 L 302.264 166.101 C 302.264 165.001 302.264 163.601 302.264 162.001 C 302.264 160.401 302.564 154.501 303.064 145.401 C 303.264 142.201 303.464 140.501 303.664 140.301 L 303.864 140.301 L 304.064 140.301 L 305.864 140.301 L 306.764 140.301 L 308.364 140.301 L 312.064 140.301 C 314.364 140.501 316.164 140.601 317.264 140.601 C 318.364 140.601 319.764 140.601 321.064 140.301 L 322.864 140.301 L 326.564 140.301 L 330.564 140.301 L 330.564 140.001 L 330.364 140.501 Z" fill="#d55293" id="object-2"/><path d="M 373.664 143.001 L 374.264 143.001 C 375.664 143.001 376.464 143.201 376.764 143.701 C 376.864 143.701 376.864 143.701 376.864 144.101 L 376.864 151.001 C 376.964 151.001 376.964 152.001 376.964 153.901 L 376.964 171.201 C 376.964 171.701 376.964 172.001 377.064 172.201 C 377.164 172.401 377.164 172.901 377.164 173.601 L 377.164 179.101 C 377.264 179.301 377.264 179.601 377.264 179.901 C 377.264 180.201 377.264 180.301 377.164 180.601 L 377.164 181.101 C 377.064 181.301 377.064 183.401 377.064 187.301 C 377.064 191.201 377.064 191.201 377.164 191.501 C 377.264 191.901 377.664 192.201 378.464 192.301 C 379.264 192.301 381.264 192.601 384.664 192.701 C 385.564 192.701 386.564 192.701 387.664 192.901 C 388.764 193.101 389.664 193.101 390.364 193.101 L 391.864 193.101 C 392.464 193.301 392.864 193.401 393.164 193.401 C 393.464 193.401 393.664 193.401 393.864 193.401 C 394.464 193.201 395.164 193.101 396.064 193.101 L 396.864 193.101 C 397.464 193.101 397.764 193.101 397.864 193.401 C 397.964 193.601 398.064 194.101 398.164 195.001 L 398.164 197.601 C 398.264 197.901 398.264 198.301 398.264 198.901 L 398.264 206.301 C 398.164 207.001 398.164 208.001 398.164 209.201 L 398.164 213.001 C 398.164 213.601 398.064 214.201 397.964 214.701 C 397.864 215.101 397.564 215.401 396.864 215.401 C 396.164 215.401 396.064 215.401 395.164 215.301 C 394.264 215.201 393.464 215.201 392.664 215.101 C 391.164 215.001 390.164 214.901 389.864 214.901 C 389.164 214.901 388.464 215.001 387.664 215.101 L 381.264 215.101 C 381.064 215.201 380.564 215.201 379.764 215.201 L 375.364 215.201 C 374.564 215.201 373.364 215.301 371.764 215.401 C 370.064 215.601 369.064 215.601 368.564 215.601 L 365.564 215.601 C 363.464 215.501 361.064 215.401 358.264 215.401 L 353.864 215.401 C 352.964 215.401 352.464 215.301 352.264 215.001 C 352.064 214.801 351.964 213.401 351.964 210.801 C 351.964 208.201 352.064 203.601 352.264 198.701 C 352.364 196.301 352.364 193.201 352.364 189.401 C 352.364 185.601 352.364 183.801 352.264 182.601 C 352.164 182.401 352.164 181.901 352.164 181.401 L 352.164 179.601 C 352.264 179.601 352.264 179.401 352.264 179.301 L 352.264 178.901 C 352.264 178.701 352.264 178.301 352.364 177.901 C 352.464 177.501 352.464 177.101 352.464 177.001 L 352.464 176.501 C 352.264 176.501 352.264 176.301 352.264 176.101 L 352.264 174.201 C 352.164 174.201 352.164 173.801 352.164 173.401 L 352.164 171.501 C 352.064 171.501 352.064 171.201 352.064 170.901 L 352.064 168.101 C 351.998 168.101 351.964 168.035 351.964 167.901 L 351.964 166.801 C 351.664 165.001 351.564 162.301 351.564 158.801 C 351.564 155.301 351.664 150.501 351.964 147.801 L 351.964 147.101 C 351.964 146.601 351.964 146.001 351.864 145.401 C 351.764 144.801 351.764 144.401 351.764 144.401 C 351.764 144.201 351.864 144.101 352.064 144.101 C 351.964 144.101 351.864 143.901 351.864 143.801 C 351.864 143.701 351.964 143.601 352.064 143.501 C 352.564 143.101 353.964 142.801 356.264 142.801 L 358.464 142.801 L 360.664 142.801 C 360.664 142.801 361.664 142.801 361.664 142.801 L 367.464 142.801 C 371.164 143.101 373.364 143.001 373.664 143.001 Z" fill="#d55293" id="object-3"/><path d="M 445.564 142.401 C 449.864 142.601 452.464 142.701 453.164 142.901 C 453.964 142.901 454.364 143.301 454.364 143.701 C 454.364 144.101 454.564 144.301 454.864 144.901 L 455.464 146.601 L 455.964 148.501 C 456.264 149.201 456.464 149.801 456.664 150.401 C 457.264 153.201 457.964 155.801 458.764 158.001 C 459.664 160.601 460.164 162.501 460.464 163.601 L 461.564 168.201 C 462.164 171.201 462.564 173.101 462.664 174.001 L 463.064 176.501 C 463.164 176.801 463.264 177.301 463.364 178.001 C 463.464 178.701 463.664 179.201 463.664 179.301 C 463.764 179.501 463.864 179.901 464.064 180.601 C 464.264 181.301 464.364 181.701 464.464 181.901 C 464.564 182.101 464.664 182.801 465.064 184.001 C 465.364 185.201 465.664 186.401 465.964 187.501 L 466.764 190.501 C 466.864 190.801 467.064 191.401 467.264 192.201 C 467.464 193.001 467.564 193.501 467.664 193.901 L 468.764 198.101 C 469.164 200.001 469.564 201.201 469.764 201.701 C 469.864 202.101 470.064 203.001 470.464 204.201 C 470.764 205.801 471.264 207.501 471.964 209.501 C 472.664 211.501 473.064 212.501 473.264 212.601 C 473.364 212.601 473.364 212.901 473.364 213.401 C 473.364 213.901 473.264 214.501 473.164 214.601 C 472.864 215.001 472.364 215.201 471.464 215.201 L 467.064 215.201 C 466.764 215.301 466.464 215.301 465.964 215.301 L 463.464 215.301 C 463.364 215.401 463.064 215.401 462.664 215.401 L 457.164 215.401 C 455.464 215.601 454.164 215.701 453.364 215.701 C 452.564 215.701 451.464 215.601 450.864 215.401 L 449.464 215.401 C 449.364 215.101 449.064 214.201 448.664 212.801 C 448.264 211.401 447.864 210.301 447.564 209.401 C 446.964 207.401 446.664 206.101 446.564 205.601 C 441.064 206.301 436.864 206.601 434.064 206.601 L 432.564 206.601 C 431.964 206.601 431.264 206.401 430.364 206.401 C 429.464 206.401 428.964 206.401 427.164 206.601 L 424.964 206.601 C 424.864 207.001 424.664 207.301 424.564 207.401 C 424.464 207.401 424.364 207.801 424.264 208.101 C 424.164 208.401 424.064 208.701 423.964 208.901 C 423.864 208.901 423.864 209.201 423.764 209.301 C 423.664 209.501 423.664 209.601 423.664 209.701 C 423.664 209.801 423.564 209.901 423.564 210.001 L 423.464 210.001 C 423.364 210.201 423.064 210.901 422.664 212.001 C 421.964 213.901 421.364 215.001 420.764 215.201 C 420.664 215.301 419.864 215.401 418.164 215.401 C 417.364 215.301 415.664 215.201 413.164 215.201 L 411.864 215.201 C 410.464 215.201 408.964 215.101 407.264 215.001 C 405.564 214.901 403.964 214.701 402.464 214.501 L 400.164 214.201 C 398.864 214.001 398.064 213.601 397.864 213.101 C 397.764 212.701 397.664 212.401 397.664 212.301 C 397.664 211.801 398.064 210.701 398.964 208.901 C 401.364 203.901 403.064 199.801 404.264 196.701 C 408.964 188.401 411.964 182.401 413.464 178.701 C 413.564 178.501 413.664 178.301 413.864 177.901 L 414.164 177.501 L 417.464 172.401 C 418.664 170.201 419.564 168.501 420.064 167.201 L 421.764 163.801 L 422.564 161.901 C 423.064 160.901 423.364 160.301 423.464 160.201 C 423.464 160.201 423.564 160.001 423.764 159.701 C 423.964 159.401 424.164 159.101 424.364 158.701 C 424.564 158.301 424.764 157.901 424.964 157.501 C 426.264 154.601 427.964 151.401 430.164 148.001 L 432.664 143.801 C 432.764 143.801 432.864 143.501 432.964 143.301 C 433.064 143.101 433.164 143.001 433.264 142.801 C 433.364 142.801 433.364 142.601 433.364 142.501 L 433.864 142.101 L 438.564 142.101 C 443.164 142.101 445.364 142.301 445.564 142.401 Z" fill="#d55293" id="object-4"/><path d="M 502.764 143.401 C 504.164 143.401 504.864 144.201 504.864 145.601 L 504.864 145.901 C 504.864 146.201 504.864 146.901 504.764 148.001 C 504.664 149.201 504.664 150.801 504.564 152.801 C 504.464 154.801 504.464 156.801 504.364 158.701 C 504.264 160.501 504.264 163.001 504.264 166.201 C 504.264 169.401 504.264 172.201 504.364 173.201 L 504.364 192.301 C 504.264 193.101 504.264 194.201 504.264 195.601 L 504.264 203.801 C 504.264 204.201 504.264 204.801 504.364 205.401 C 504.464 206.001 504.464 206.501 504.464 206.901 L 504.464 211.801 C 504.464 213.801 503.264 215.101 500.964 215.801 C 500.564 216.001 499.364 216.101 497.364 216.101 C 495.364 216.101 492.264 216.001 489.264 215.801 C 487.464 215.701 485.764 215.601 484.164 215.601 C 482.564 215.601 480.764 215.701 479.864 215.801 C 478.864 215.901 478.264 216.001 478.164 216.001 C 477.864 216.001 477.564 215.901 477.364 215.801 C 476.464 215.501 476.064 215.001 476.064 214.401 C 476.064 213.801 475.964 213.501 475.764 213.501 C 475.664 213.101 475.564 212.701 475.564 212.401 C 475.564 212.101 475.664 211.701 475.764 210.701 L 475.764 200.401 C 475.764 197.801 475.764 195.801 475.864 194.501 L 475.864 190.401 C 475.964 190.101 475.964 189.701 475.964 189.201 C 475.964 188.701 475.964 188.601 475.864 188.501 L 475.864 187.401 C 475.964 187.101 475.964 186.101 475.964 184.401 L 475.964 165.201 C 476.064 164.601 476.164 162.801 476.164 160.001 C 476.164 157.201 476.064 156.501 475.964 155.501 C 475.964 155.201 476.064 152.601 476.264 147.701 L 476.264 146.801 C 476.264 145.501 476.664 144.801 477.464 144.801 L 478.064 144.801 C 478.264 144.801 479.664 144.601 482.064 144.601 C 484.464 144.601 486.164 144.601 486.864 144.401 C 488.264 144.201 490.964 144.001 494.864 143.901 L 499.864 143.901 C 501.164 143.701 502.264 143.601 502.764 143.401 Z" fill="#d55293" id="object-5"/><path d="M 509.164 143.101 C 509.664 143.101 509.964 143.301 510.164 143.301 L 510.864 143.101 C 511.364 143.101 513.364 143.301 516.864 143.401 C 520.364 143.501 523.464 144.001 526.164 144.801 C 528.264 145.401 531.764 147.101 536.864 149.801 C 537.064 149.801 537.464 150.201 537.864 150.601 C 538.264 151.001 538.564 151.201 538.664 151.301 C 538.964 151.301 539.864 152.101 541.564 153.401 C 543.164 154.701 544.064 155.401 544.064 155.501 C 544.364 155.701 545.064 156.401 546.364 157.701 L 548.464 159.801 C 549.464 160.701 550.464 161.901 551.464 163.501 C 551.564 163.501 551.664 163.801 551.864 164.101 C 552.064 164.401 552.264 164.701 552.364 164.801 C 552.764 165.201 553.164 165.801 553.564 166.601 C 553.764 167.401 554.164 168.101 554.564 168.801 C 554.964 169.601 555.264 170.601 555.564 172.001 C 555.664 172.401 555.764 173.001 555.964 173.701 C 556.164 174.401 556.264 174.801 556.264 175.001 C 556.564 176.001 556.664 177.401 556.664 179.201 C 556.664 182.301 556.164 185.501 555.264 188.701 C 554.964 189.601 554.264 191.501 552.964 194.401 C 551.664 197.301 550.964 198.801 550.764 198.901 C 550.464 199.201 550.164 199.701 549.864 200.301 C 547.464 204.301 545.164 206.901 542.864 208.301 C 542.664 208.301 542.264 208.701 541.564 209.101 C 540.864 209.501 540.464 209.801 540.264 210.001 C 539.564 210.601 538.964 210.901 538.564 211.101 C 538.064 211.401 537.764 211.501 537.764 211.701 C 537.564 212.001 536.764 212.301 535.464 212.801 C 534.064 213.301 532.964 213.601 532.064 213.801 C 531.964 213.801 531.764 213.801 531.464 213.901 C 531.164 214.001 530.864 214.101 530.664 214.101 C 529.864 214.301 528.864 214.401 527.864 214.501 C 527.464 214.601 526.964 214.601 526.264 214.701 C 525.564 214.801 525.064 214.901 524.864 214.901 C 523.264 215.301 520.664 215.501 517.064 215.501 C 513.464 215.501 512.364 215.201 511.764 214.701 C 511.064 214.201 510.764 212.801 510.664 210.401 C 510.464 209.101 510.364 208.301 510.364 207.801 L 510.364 207.001 C 510.264 206.601 510.264 205.901 510.264 205.001 L 510.264 202.501 L 508.664 157.301 C 508.564 154.701 508.564 153.001 508.564 152.001 L 508.564 151.801 C 508.464 151.801 508.464 151.501 508.464 151.301 L 508.464 150.701 L 508.164 147.601 C 508.064 146.301 507.964 145.601 507.964 145.401 C 507.964 144.601 508.064 144.001 508.264 143.701 C 508.664 143.401 508.964 143.201 509.164 143.101 Z" fill="#d55293" id="object-6"/><path d="M 556.664 141.901 L 558.464 141.901 C 563.064 141.901 565.664 141.901 566.264 142.101 C 567.964 142.401 569.264 142.601 570.064 142.601 L 570.464 142.601 C 571.064 142.601 572.264 142.401 573.864 142.401 C 575.464 142.401 577.564 142.401 579.664 142.601 C 582.164 142.801 583.364 142.901 583.464 142.901 L 588.164 142.701 L 591.564 142.701 C 591.864 142.701 592.164 143.001 592.464 143.401 L 592.464 145.501 C 592.464 145.701 592.464 145.801 592.364 145.801 C 592.264 145.801 592.264 145.801 592.264 145.801 C 592.364 146.001 592.364 146.101 592.364 146.201 L 592.364 146.401 C 592.164 147.001 592.064 147.701 592.064 148.701 C 592.064 149.701 592.164 150.401 592.364 151.101 L 592.364 153.001 C 592.364 153.401 592.364 153.601 592.464 153.801 L 592.464 155.901 C 592.464 156.201 592.464 156.401 592.564 156.601 C 592.764 157.901 592.864 158.701 592.864 159.101 C 592.864 159.501 592.764 160.001 592.564 160.201 C 592.164 160.801 591.664 161.001 591.264 161.001 L 588.964 161.001 C 587.464 161.501 585.964 161.801 584.664 161.801 C 583.364 161.801 584.364 161.801 584.164 161.801 L 583.964 161.801 C 583.564 161.801 582.264 161.801 580.064 161.601 L 576.964 161.601 L 576.664 162.001 C 576.564 162.001 576.564 162.401 576.564 162.801 C 576.564 163.701 576.664 165.101 576.964 166.901 C 576.964 166.901 576.964 167.301 577.064 167.701 C 577.164 168.101 577.164 168.501 577.264 168.601 C 577.264 168.601 577.264 168.901 577.364 169.201 L 577.364 169.701 C 577.564 169.701 579.164 169.901 582.364 169.901 C 585.564 169.901 587.564 169.901 588.664 169.701 L 590.564 169.701 C 592.864 169.701 594.164 169.901 594.564 170.301 C 594.964 170.601 595.164 171.001 595.164 171.501 C 595.164 172.001 595.164 172.301 595.064 172.501 C 594.964 173.001 594.964 173.801 594.964 174.901 L 595.364 181.301 C 595.364 183.001 595.364 183.901 595.464 184.101 L 595.464 184.601 C 595.464 184.901 595.564 185.201 595.564 185.501 L 595.564 186.401 C 595.564 187.501 595.464 188.101 595.364 188.401 C 595.264 188.701 594.864 189.001 594.364 189.301 C 593.764 189.601 592.464 189.801 590.664 189.801 C 587.164 189.801 584.264 189.601 581.964 189.201 L 581.364 189.201 C 580.964 189.201 580.664 189.701 580.664 190.701 L 580.664 191.701 C 580.864 194.501 581.164 196.101 581.564 196.301 C 581.664 196.301 582.064 196.501 582.864 196.601 C 583.664 196.601 584.464 196.601 585.264 196.901 L 587.264 196.901 L 588.064 196.901 L 588.664 196.901 L 593.164 196.901 C 593.764 196.901 594.164 196.901 594.564 196.601 L 595.364 196.601 C 596.164 196.601 596.664 196.801 596.864 197.201 C 596.964 197.501 597.064 199.801 597.064 204.401 C 597.064 209.001 597.064 208.701 596.964 209.301 L 596.964 212.801 C 596.764 213.901 596.564 214.601 596.364 215.101 C 596.064 215.701 595.564 215.901 594.764 215.901 L 591.264 215.901 C 590.764 216.001 588.764 216.001 585.464 216.001 C 580.064 216.001 576.764 216.001 575.664 215.901 C 575.064 215.801 574.264 215.801 573.264 215.801 C 572.264 215.801 571.964 215.801 571.564 215.901 L 565.564 215.901 C 565.164 216.001 564.764 216.101 564.364 216.101 C 563.764 216.101 563.364 216.001 562.964 215.901 C 562.764 215.801 562.564 215.801 562.464 215.701 C 562.264 215.601 562.164 215.601 562.164 215.601 C 562.098 215.601 562.031 215.568 561.964 215.501 L 561.864 215.501 L 561.864 215.201 C 561.764 215.101 561.764 214.901 561.764 214.801 C 561.764 214.701 561.664 214.501 561.564 214.201 C 561.464 214.001 561.364 213.701 561.264 213.401 C 560.964 212.901 560.764 211.401 560.764 208.901 C 560.664 203.901 560.464 201.001 560.364 200.401 L 560.364 199.701 C 560.264 199.301 560.264 198.701 560.264 198.001 L 560.264 196.001 C 560.264 191.701 560.064 188.701 559.764 187.101 C 559.664 186.101 559.564 184.801 559.564 183.201 C 559.364 180.901 559.264 179.501 559.164 179.101 C 557.764 164.301 556.664 154.501 555.964 149.901 C 555.764 148.901 555.664 147.301 555.664 145.101 C 555.664 142.901 555.664 143.501 555.764 143.401 C 555.564 142.601 556.064 142.301 556.664 142.201 L 556.664 141.901 Z" fill="#d55293" id="object-7"/><path d="M 645.864 215.401 C 645.464 215.501 644.564 215.601 643.264 215.601 C 641.964 215.601 639.864 215.501 638.064 215.401 C 637.164 215.301 636.064 215.201 634.864 215.201 C 633.664 215.201 633.264 215.301 632.964 215.401 C 632.264 215.601 631.464 215.701 630.564 215.701 C 629.664 215.701 628.464 215.601 626.564 215.401 C 624.964 215.401 623.964 215.201 623.364 214.901 C 622.764 214.601 622.464 214.001 622.264 213.001 C 622.164 212.601 622.164 211.701 622.164 210.201 C 622.164 208.701 622.164 206.901 622.264 205.901 C 622.364 204.501 622.464 201.201 622.464 195.801 C 622.464 187.401 622.264 181.801 621.964 179.001 C 621.764 177.601 621.664 175.801 621.564 173.601 C 621.464 170.101 621.264 167.101 621.064 164.601 C 620.764 161.401 620.564 156.601 620.364 150.301 C 620.364 149.501 620.264 148.101 620.164 146.001 C 620.064 143.901 619.964 142.501 619.964 141.801 C 619.964 141.101 619.964 140.901 620.064 140.901 C 620.264 140.301 621.064 140.101 622.564 140.101 L 631.264 140.101 L 632.064 140.101 L 663.864 140.101 C 664.164 140.401 664.264 141.301 664.264 142.801 L 664.264 154.101 C 664.264 158.401 664.164 160.901 663.964 161.501 C 663.864 162.301 663.764 162.901 663.764 163.501 L 663.564 163.501 C 663.364 163.501 663.264 163.501 663.164 163.501 C 662.964 163.501 662.864 163.501 662.764 163.501 L 654.464 163.501 C 653.664 163.501 653.164 163.501 652.764 163.501 C 652.464 163.501 652.064 163.501 651.564 163.501 C 651.064 163.501 650.764 163.501 650.464 163.501 C 650.364 163.501 650.064 163.501 649.664 163.501 L 644.964 163.501 C 644.764 163.501 644.564 163.501 644.264 163.501 C 643.664 163.501 643.364 164.301 643.364 165.901 C 643.364 167.501 643.464 167.901 643.664 168.401 C 644.064 170.901 644.264 172.201 644.464 172.401 C 644.864 173.001 647.064 173.201 651.064 173.201 C 655.064 173.201 654.664 173.201 655.664 173.201 L 657.364 173.201 C 657.364 173.201 658.664 173.201 659.164 173.201 L 660.264 173.201 C 661.164 173.401 661.764 173.601 661.864 173.801 L 662.364 174.301 L 662.364 178.601 C 662.264 182.301 662.264 185.501 662.364 188.001 C 662.364 191.101 662.164 192.801 661.864 193.101 C 661.564 193.401 660.964 193.601 660.064 193.601 L 659.864 193.601 C 659.464 193.601 659.064 193.601 658.764 193.801 C 657.964 194.101 655.264 194.201 650.664 194.201 C 646.064 194.201 646.064 194.401 645.664 194.701 C 645.464 194.901 645.364 195.301 645.364 195.901 C 645.364 196.501 645.364 197.801 645.464 201.101 C 645.564 204.501 645.564 207.801 645.664 211.101 C 645.764 214.201 645.764 215.901 645.864 215.901 L 645.864 215.401 Z" fill="#d55293" id="object-8"/><path d="M 672.264 142.001 L 677.764 142.001 C 680.164 142.001 682.464 142.501 684.764 143.101 C 684.864 143.101 685.164 143.101 685.664 143.301 C 686.164 143.301 686.464 143.501 686.664 143.501 C 689.164 143.901 691.564 144.501 693.764 145.501 C 697.564 147.301 700.464 149.001 702.364 150.601 C 704.464 152.401 705.864 153.801 706.664 154.701 C 707.464 155.601 708.264 156.701 708.964 158.101 C 709.464 159.101 709.864 160.401 710.064 162.001 L 710.064 163.101 C 710.064 163.101 710.064 163.901 710.064 164.201 C 710.064 165.001 709.764 165.601 709.564 166.101 C 709.564 166.401 709.364 166.501 709.364 166.701 C 709.364 168.301 708.364 170.701 706.264 173.701 C 704.264 176.701 702.364 179.001 700.764 180.601 C 700.464 180.901 700.364 181.401 700.364 182.101 C 700.364 183.201 700.564 184.101 701.064 184.601 C 701.064 184.801 701.664 185.701 702.564 187.301 C 703.364 188.901 704.264 190.401 705.264 191.701 L 709.264 197.501 C 712.864 202.901 715.964 207.901 718.464 212.401 C 719.464 214.101 719.964 215.001 719.964 215.001 C 719.964 215.301 719.464 215.501 718.364 215.501 L 717.564 215.501 C 716.164 215.301 714.564 215.201 712.764 215.201 C 710.964 215.201 710.764 215.301 710.064 215.401 L 708.164 215.401 C 707.964 215.401 707.864 215.401 707.664 215.501 C 707.464 215.601 706.964 215.601 706.064 215.601 C 705.164 215.601 704.464 215.601 703.964 215.501 C 703.664 215.401 703.264 215.401 702.664 215.401 L 698.864 215.401 C 698.264 215.401 697.764 215.301 697.364 215.201 C 697.064 215.101 696.764 215.001 696.664 214.801 C 696.664 214.701 696.464 214.401 696.364 213.901 C 696.264 213.401 696.064 213.001 695.864 212.701 C 695.364 211.701 694.464 209.701 693.064 206.801 C 691.664 203.901 690.464 201.301 689.264 199.201 C 688.164 197.001 687.164 195.301 686.464 194.101 L 686.464 208.001 C 686.464 208.401 686.464 209.001 686.564 209.601 C 686.664 210.301 686.664 210.701 686.664 211.001 C 686.664 211.301 686.564 211.601 686.464 212.101 C 686.364 212.401 686.364 212.701 686.364 213.001 C 686.364 213.301 686.364 213.701 686.464 214.101 C 686.564 214.501 686.564 214.801 686.564 214.901 C 686.564 215.001 686.464 215.201 686.364 215.301 L 680.864 215.301 C 680.364 215.301 679.964 215.301 679.764 215.401 L 677.464 215.401 C 677.164 215.401 677.064 215.401 676.864 215.501 C 676.664 215.601 676.364 215.601 675.864 215.601 C 675.364 215.601 674.864 215.601 674.664 215.501 C 674.464 215.401 673.964 215.401 673.064 215.401 C 672.164 215.401 671.264 215.401 670.764 215.501 C 670.164 215.601 669.364 215.701 668.564 215.801 C 667.764 215.901 667.164 216.001 666.964 216.001 C 666.464 216.001 666.164 215.801 666.164 215.501 C 666.064 215.101 665.964 214.701 665.964 214.101 C 665.964 213.501 665.964 212.901 666.064 211.601 C 666.164 210.301 666.164 209.301 666.164 208.401 L 666.164 200.101 C 666.164 199.001 666.164 198.201 666.264 197.701 L 666.264 191.101 C 666.164 190.301 666.164 189.101 666.164 187.401 L 666.164 181.101 C 666.064 180.901 666.064 180.601 666.064 180.101 L 666.064 174.301 C 666.064 173.801 666.064 173.401 665.964 173.101 C 665.864 173.101 665.864 172.801 665.864 172.401 L 665.864 167.401 C 665.764 165.601 665.664 164.301 665.664 163.201 C 665.664 162.101 665.764 160.401 665.864 158.401 L 665.864 154.401 C 665.764 154.201 665.764 153.901 665.764 153.601 L 665.764 148.301 C 665.764 147.901 665.764 147.601 665.664 147.501 L 665.664 147.201 C 665.664 147.001 665.664 146.501 665.564 145.801 C 665.464 145.001 665.464 144.401 665.464 144.001 C 665.464 143.301 665.564 142.701 665.764 142.301 C 666.764 142.001 668.664 142.001 672.264 142.001 Z" fill="#d55293" id="object-9"/><path d="M 716.464 200.401 L 716.464 200.201 C 716.464 198.601 716.164 191.001 715.464 177.301 C 714.764 163.601 714.364 156.701 714.364 156.601 C 714.064 156.001 713.864 153.901 713.864 150.401 L 713.864 148.901 C 713.864 148.201 714.164 147.701 714.464 147.501 L 715.164 147.001 L 723.764 146.601 C 725.064 146.601 726.564 146.601 728.164 146.401 C 729.764 146.201 731.064 146.401 732.064 146.201 L 733.864 146.201 L 734.864 146.201 C 735.264 146.201 735.564 146.201 735.664 146.501 C 735.964 146.701 736.064 146.901 736.064 147.201 C 736.064 147.501 736.064 148.301 735.764 149.701 L 735.764 150.201 C 735.764 152.301 735.764 156.001 736.064 161.101 C 736.364 166.201 736.464 169.201 736.664 170.001 L 736.664 175.301 L 736.664 180.901 C 736.964 183.201 737.064 188.201 737.164 195.801 C 737.264 203.401 737.364 208.201 737.564 210.201 C 737.564 210.801 737.764 211.601 737.764 212.401 C 737.764 213.901 737.364 214.801 736.664 215.001 C 736.064 215.301 733.764 215.501 729.564 215.801 L 728.864 215.801 C 728.264 215.801 727.464 215.701 726.464 215.601 C 725.464 215.401 724.864 215.401 724.564 215.401 L 724.064 215.401 C 722.764 215.601 720.864 215.701 718.464 215.701 L 717.164 215.701 C 716.764 215.601 716.564 214.501 716.464 212.601 C 716.764 211.801 716.664 207.801 716.364 200.501 L 716.464 200.401 Z" fill="#d55293" id="object-10"/><path d="M 740.664 141.801 L 744.664 142.001 C 745.064 142.301 745.564 142.601 745.964 143.001 C 746.364 143.401 746.764 143.801 747.164 144.301 L 747.764 145.101 C 748.264 145.601 748.664 146.001 748.964 146.201 C 753.764 149.801 757.564 153.301 760.364 156.701 L 764.064 160.801 C 765.464 162.201 766.564 163.501 767.364 164.701 C 767.764 165.301 768.264 166.001 769.064 166.801 C 769.764 167.601 770.164 168.001 770.364 168.001 C 770.564 168.001 770.564 168.001 770.764 167.601 L 770.764 166.701 C 770.764 166.201 770.764 165.201 770.764 163.601 C 770.764 162.001 770.764 160.001 770.764 159.501 L 770.764 150.701 C 770.764 149.701 770.764 148.701 770.764 147.901 C 770.764 146.501 770.764 145.201 770.764 144.201 L 770.764 143.201 C 770.764 142.701 770.764 142.401 770.964 142.301 C 770.964 142.301 771.464 142.101 772.064 142.101 L 772.864 142.101 C 774.164 142.101 775.964 142.101 778.364 142.401 L 780.564 142.401 L 785.664 142.401 C 785.664 142.401 788.964 142.401 789.564 142.401 C 790.864 142.401 791.664 142.601 792.064 142.901 C 792.064 143.301 792.264 146.501 792.264 152.501 L 792.264 172.501 L 792.264 174.601 C 792.264 176.101 792.064 178.401 792.064 181.401 L 792.064 185.101 L 792.064 189.101 C 792.064 189.101 792.064 192.101 792.064 192.801 L 792.064 195.201 L 792.064 203.301 L 792.064 212.701 C 792.064 214.801 791.564 215.901 790.664 215.901 C 789.764 215.901 789.164 215.601 787.564 215.001 C 786.964 214.901 786.464 214.501 785.864 214.001 L 783.264 211.501 C 783.064 211.301 782.664 210.901 781.864 210.201 C 781.164 209.501 780.664 209.101 780.464 209.001 L 777.864 206.501 C 776.764 205.701 776.064 205.101 775.764 204.601 C 774.864 203.701 774.264 203.201 773.864 203.001 C 772.564 202.101 770.664 200.201 768.064 197.501 C 767.464 196.901 766.664 196.201 765.764 195.301 C 765.164 194.901 764.864 194.701 764.764 194.501 C 764.264 193.901 763.664 193.601 763.064 193.601 L 762.664 193.601 L 762.664 194.601 L 762.664 195.601 L 762.664 197.201 L 762.664 200.901 C 762.664 200.901 762.664 203.101 762.664 204.301 L 762.664 206.601 L 762.664 208.101 L 762.664 209.301 L 762.664 212.801 L 762.664 214.201 L 762.664 215.401 C 762.664 215.701 762.664 215.801 762.464 216.001 L 742.264 216.001 C 741.364 216.001 740.764 215.901 740.464 215.701 C 740.464 215.601 740.264 214.801 740.264 213.401 C 740.264 212.001 740.264 209.201 740.464 206.301 L 740.464 193.201 C 740.464 189.201 740.264 186.901 740.264 186.301 C 740.264 184.901 740.264 182.601 740.464 179.401 L 740.464 173.301 C 740.664 171.201 740.764 168.501 740.764 165.301 C 740.764 162.101 740.764 158.001 740.464 153.901 L 740.464 145.601 C 740.464 145.001 740.464 144.701 740.464 144.601 L 740.464 143.701 C 740.464 143.301 740.464 143.001 740.464 142.801 C 740.364 142.301 740.464 142.101 740.464 142.001 L 740.664 141.801 Z" fill="#d55293" id="object-11"/><path d="M 830.164 144.301 C 831.264 144.301 831.964 144.301 832.364 144.501 L 833.364 144.501 C 833.364 144.501 833.964 144.501 834.164 144.801 L 834.564 144.801 C 834.564 144.801 834.964 145.001 835.264 145.101 L 835.864 145.101 C 836.564 145.101 837.564 145.601 838.764 146.101 C 839.964 146.701 840.764 147.101 841.164 147.401 C 841.164 147.601 841.464 147.901 841.864 148.201 C 842.464 148.801 842.664 149.701 842.664 150.901 C 842.664 152.101 842.664 153.301 842.364 154.901 L 842.364 156.601 C 842.364 156.601 842.364 158.201 842.364 158.601 C 842.364 160.101 842.564 162.201 842.564 164.801 C 842.564 167.401 842.564 167.201 842.364 167.301 L 842.364 169.301 L 842.364 169.901 L 842.364 171.701 C 842.364 172.001 842.164 172.201 842.064 172.301 C 842.064 172.501 841.864 172.601 841.764 172.601 C 841.764 172.601 841.564 172.601 841.364 172.801 C 841.164 173.001 841.064 172.801 840.964 173.001 C 840.864 173.201 840.764 173.001 840.664 173.001 C 840.264 173.001 838.764 172.201 836.164 170.601 C 833.664 169.001 831.564 168.101 829.864 168.001 L 829.164 168.001 C 826.564 168.001 824.264 169.101 822.464 171.301 C 821.764 171.901 821.164 172.901 820.564 174.201 C 819.564 176.301 819.064 177.901 819.064 178.801 C 819.064 179.701 819.364 181.001 819.864 182.901 C 820.464 184.701 821.064 185.901 821.664 186.501 C 822.864 187.601 823.664 188.301 823.964 188.601 C 824.264 188.901 824.964 189.101 825.764 189.401 C 827.164 189.801 828.164 190.101 828.464 190.101 L 828.764 190.101 L 828.764 182.701 C 828.764 181.701 828.764 181.101 828.764 180.901 L 828.764 177.401 C 828.764 177.401 828.764 177.401 828.764 177.401 C 828.964 177.401 829.064 177.601 829.264 177.601 C 829.464 177.601 829.564 177.601 829.664 177.601 C 829.664 177.601 829.731 177.601 829.864 177.601 L 830.064 177.601 L 830.664 177.901 L 833.264 177.901 L 834.064 177.901 L 836.164 177.901 L 835.964 177.901 C 835.964 178.101 836.264 178.101 836.364 178.101 C 836.464 178.101 836.564 178.101 836.864 178.101 C 837.164 178.101 837.464 178.101 837.764 178.101 L 838.064 178.101 C 839.164 178.101 839.864 178.101 840.264 178.301 C 840.664 178.501 840.964 178.601 841.264 179.001 C 841.564 179.401 841.764 180.001 841.764 180.801 L 841.764 200.401 L 841.764 204.501 L 841.764 208.201 C 841.764 210.501 841.464 212.001 840.964 212.501 C 840.964 212.568 840.898 212.635 840.764 212.701 C 840.364 213.301 839.664 213.601 838.764 213.601 C 837.864 213.601 838.064 213.601 837.364 213.701 C 836.164 213.801 835.164 213.801 834.264 213.901 C 833.164 214.101 832.164 214.201 831.364 214.201 C 830.564 214.201 827.864 213.901 823.764 213.401 C 818.064 212.601 814.164 211.401 812.064 210.001 C 811.764 209.801 811.264 209.501 810.664 209.101 C 810.164 208.801 809.264 208.001 807.964 206.901 C 806.664 205.701 805.664 204.701 804.864 203.801 L 803.164 202.001 C 802.764 201.601 801.464 200.001 799.364 197.201 C 797.564 193.901 796.164 191.201 795.164 188.901 C 794.264 186.601 793.664 184.801 793.364 183.401 C 793.064 181.801 792.864 180.401 792.864 179.201 C 792.864 178.001 792.864 177.001 793.164 176.001 C 793.464 175.201 793.564 174.401 793.564 173.701 C 793.564 172.501 793.964 170.601 794.664 167.901 C 795.464 165.201 796.164 163.201 796.864 161.701 C 797.264 160.801 798.264 159.101 799.864 156.601 C 800.264 156.001 800.564 155.601 800.664 155.301 C 800.964 154.801 801.564 154.001 802.364 152.901 C 803.164 151.801 803.764 151.101 804.064 150.801 C 805.464 149.501 806.564 148.801 807.064 148.501 C 807.964 147.801 808.764 147.301 809.664 146.901 C 810.464 146.601 811.664 146.201 812.964 145.801 C 814.264 145.401 815.364 145.101 816.264 144.801 C 817.664 144.401 819.264 144.201 821.164 144.201 C 823.064 144.201 823.564 144.201 825.364 144.401 C 827.564 144.501 828.964 144.601 829.964 144.601 L 830.164 144.301 Z" fill="#d55293" id="object-12"/><path d="M 844.664 141.901 L 846.464 141.901 C 851.064 141.901 853.664 141.901 854.264 142.101 C 855.964 142.401 857.264 142.601 858.064 142.601 L 858.464 142.601 C 859.064 142.601 860.264 142.401 861.864 142.401 C 863.464 142.401 865.564 142.401 867.664 142.601 C 870.164 142.801 871.364 142.901 871.464 142.901 L 876.164 142.701 L 879.564 142.701 C 879.864 142.701 880.164 143.001 880.464 143.401 L 880.464 145.501 L 880.464 145.801 C 880.464 145.801 880.464 145.801 880.464 145.801 L 880.464 146.201 L 880.464 146.401 C 880.264 147.001 880.164 147.701 880.164 148.701 C 880.164 149.701 880.164 150.401 880.464 151.101 L 880.464 153.001 L 880.464 153.801 L 880.464 155.901 L 880.464 156.601 C 880.664 157.901 880.764 158.701 880.764 159.101 C 880.764 159.501 880.764 160.001 880.464 160.201 C 880.064 160.801 879.564 161.001 879.164 161.001 L 876.864 161.001 C 875.364 161.501 873.864 161.801 872.564 161.801 C 871.264 161.801 872.264 161.801 872.064 161.801 L 871.864 161.801 C 871.464 161.801 870.164 161.801 867.964 161.601 L 864.864 161.601 L 864.564 162.001 L 864.564 162.801 C 864.564 163.701 864.564 165.101 864.964 166.901 L 864.964 167.701 C 864.964 167.701 864.964 168.501 865.164 168.601 L 865.164 169.201 L 865.164 169.701 C 865.364 169.701 866.964 169.901 870.164 169.901 C 873.364 169.901 875.364 169.901 876.464 169.701 L 878.364 169.701 C 880.664 169.701 881.964 169.901 882.364 170.301 C 882.764 170.601 882.964 171.001 882.964 171.501 C 882.964 172.001 882.964 172.301 882.964 172.501 L 882.964 174.901 L 883.364 181.301 L 883.364 184.101 L 883.364 184.601 L 883.364 185.501 L 883.364 186.401 C 883.364 187.501 883.364 188.101 883.164 188.401 C 883.164 188.701 882.664 189.001 882.164 189.301 C 881.564 189.601 880.264 189.801 878.464 189.801 C 874.964 189.801 872.064 189.601 869.764 189.201 L 869.164 189.201 C 868.764 189.201 868.464 189.701 868.464 190.701 L 868.464 191.701 C 868.664 194.501 868.964 196.101 869.364 196.301 C 869.364 196.301 869.864 196.501 870.664 196.601 C 871.464 196.601 872.264 196.601 873.064 196.901 L 875.064 196.901 L 875.864 196.901 L 876.464 196.901 L 880.964 196.901 C 881.564 196.901 881.964 196.901 882.364 196.601 L 883.164 196.601 C 883.964 196.601 884.464 196.801 884.664 197.201 C 884.664 197.501 884.864 199.801 884.864 204.401 C 884.864 209.001 884.864 208.701 884.864 209.301 L 884.864 212.801 C 884.664 213.901 884.464 214.601 884.264 215.101 C 883.964 215.701 883.464 215.901 882.664 215.901 L 878.964 215.901 C 878.464 216.001 876.464 216.001 873.164 216.001 C 867.764 216.001 864.464 216.001 863.364 215.901 C 862.764 215.801 861.964 215.801 860.964 215.801 C 859.964 215.801 859.664 215.801 859.264 215.901 L 853.264 215.901 C 852.864 216.001 852.464 216.101 852.064 216.101 C 851.464 216.101 851.064 216.001 850.664 215.901 C 850.464 215.801 850.264 215.801 850.164 215.701 C 849.964 215.601 849.864 215.601 849.864 215.601 C 849.864 215.601 849.798 215.568 849.664 215.501 L 849.664 215.201 C 849.664 215.101 849.664 214.901 849.664 214.801 C 849.664 214.701 849.664 214.501 849.464 214.201 C 849.464 214.001 849.264 213.701 849.164 213.401 C 848.864 212.901 848.664 211.401 848.664 208.901 C 848.664 203.901 848.364 201.001 848.264 200.401 L 848.264 199.701 C 848.264 199.301 848.264 198.701 848.264 198.001 L 848.264 196.001 C 848.264 191.701 848.064 188.701 847.764 187.101 C 847.764 186.101 847.564 184.801 847.564 183.201 C 847.364 180.901 847.264 179.501 847.164 179.101 C 845.764 164.301 844.664 154.501 843.964 149.901 C 843.764 148.901 843.664 147.301 843.664 145.101 C 843.664 142.901 843.664 143.501 843.664 143.401 C 843.764 142.601 844.164 142.301 844.764 142.201 L 844.664 141.901 Z" fill="#d55293" id="object-13"/><path d="M 473.264 106.301 L 468.464 86.701 L 477.364 83.101 L 484.964 102.401 L 500.864 93.801 L 505.564 102.201 L 491.264 111.801 L 507.864 122.701 L 501.864 131.801 L 485.564 124.701 L 473.564 140.401 L 465.964 135.801 L 474.064 118.201 L 456.264 117.701 L 456.464 107.601 L 473.264 106.301 Z" fill="#71285d" id="object-14"/><path d="M 723.364 117.101 L 727.564 105.801 L 733.264 107.101 L 730.364 119.201 L 741.164 120.401 L 740.664 126.101 L 730.264 126.001 L 734.764 137.101 L 728.664 139.501 L 723.064 130.401 L 711.764 134.101 L 709.564 129.201 L 719.664 123.301 L 710.964 117.001 L 714.564 112.101 L 723.364 117.101 Z" fill="#71285d" id="object-15"/></g></svg>